<svg width="499" height="113" viewBox="0 0 499 113" fill="none" xmlns="http://www.w3.org/2000/svg">
<path d="M486.135 93.2L485.463 84.272V26H498.135V93.2H486.135ZM471.063 94.352C466.647 94.352 462.807 93.328 459.543 91.28C456.343 89.232 453.847 86.32 452.055 82.544C450.263 78.768 449.367 74.32 449.367 69.2C449.367 64.016 450.263 59.568 452.055 55.856C453.847 52.08 456.343 49.168 459.543 47.12C462.807 45.072 466.647 44.048 471.063 44.048C475.095 44.048 478.487 45.072 481.239 47.12C484.055 49.168 486.199 52.08 487.671 55.856C489.143 59.568 489.879 64.016 489.879 69.2C489.879 74.32 489.143 78.768 487.671 82.544C486.199 86.32 484.055 89.232 481.239 91.28C478.487 93.328 475.095 94.352 471.063 94.352ZM474.327 82.736C476.503 82.736 478.423 82.16 480.087 81.008C481.815 79.856 483.159 78.256 484.119 76.208C485.079 74.16 485.559 71.824 485.559 69.2C485.559 66.576 485.079 64.24 484.119 62.192C483.159 60.144 481.815 58.576 480.087 57.488C478.423 56.336 476.471 55.76 474.231 55.76C471.927 55.76 469.911 56.336 468.183 57.488C466.455 58.576 465.079 60.144 464.055 62.192C463.031 64.24 462.519 66.576 462.519 69.2C462.519 71.824 463.031 74.16 464.055 76.208C465.079 78.256 466.455 79.856 468.183 81.008C469.975 82.16 472.023 82.736 474.327 82.736Z" fill="#FFFFFF"/>
<path d="M433.6 93.1989L433.216 83.5029V68.9109C433.216 66.0309 432.896 63.5669 432.256 61.5189C431.68 59.4709 430.72 57.9029 429.376 56.8149C428.096 55.6629 426.336 55.0869 424.096 55.0869C422.048 55.0869 420.192 55.5349 418.528 56.4309C416.864 57.3269 415.456 58.7029 414.304 60.5589L403.168 56.7189C404.064 54.6709 405.376 52.6869 407.104 50.7669C408.832 48.7829 411.072 47.1829 413.824 45.9669C416.64 44.6869 420.064 44.0469 424.096 44.0469C428.96 44.0469 432.992 44.9749 436.192 46.8309C439.456 48.6869 441.856 51.3109 443.392 54.7029C444.992 58.0309 445.76 61.9989 445.696 66.6069L445.408 93.1989H433.6ZM420.16 94.3509C414.4 94.3509 409.92 93.0709 406.72 90.5109C403.584 87.9509 402.016 84.3349 402.016 79.6629C402.016 74.5429 403.712 70.7029 407.104 68.1429C410.56 65.5189 415.392 64.2069 421.6 64.2069H433.792V73.6149H426.016C421.856 73.6149 418.976 74.1269 417.376 75.1509C415.776 76.1109 414.976 77.4869 414.976 79.2789C414.976 80.6869 415.616 81.8069 416.896 82.6389C418.176 83.4069 419.968 83.7909 422.272 83.7909C424.384 83.7909 426.24 83.3109 427.84 82.3509C429.504 81.3269 430.816 80.0469 431.776 78.5109C432.736 76.9109 433.216 75.2789 433.216 73.6149H436.288C436.288 80.1429 435.04 85.2309 432.544 88.8789C430.112 92.5269 425.984 94.3509 420.16 94.3509Z" fill="#FFFFFF"/>
<path d="M375.23 94.3509C370.366 94.3509 366.014 93.2949 362.174 91.1829C358.398 89.0069 355.422 86.0309 353.246 82.2549C351.134 78.4789 350.078 74.1269 350.078 69.1989C350.078 64.2709 351.134 59.9189 353.246 56.1429C355.358 52.3669 358.302 49.4229 362.078 47.3109C365.854 45.1349 370.174 44.0469 375.038 44.0469C379.966 44.0469 384.318 45.1349 388.094 47.3109C391.87 49.4229 394.814 52.3669 396.926 56.1429C399.038 59.9189 400.094 64.2709 400.094 69.1989C400.094 74.1269 399.038 78.4789 396.926 82.2549C394.814 86.0309 391.87 89.0069 388.094 91.1829C384.382 93.2949 380.094 94.3509 375.23 94.3509ZM375.23 82.6389C377.598 82.6389 379.678 82.0629 381.47 80.9109C383.262 79.7589 384.638 78.1909 385.598 76.2069C386.622 74.1589 387.134 71.8229 387.134 69.1989C387.134 66.5749 386.622 64.2709 385.598 62.2869C384.574 60.2389 383.134 58.6389 381.278 57.4869C379.486 56.3349 377.406 55.7589 375.038 55.7589C372.734 55.7589 370.654 56.3349 368.798 57.4869C367.006 58.6389 365.598 60.2389 364.574 62.2869C363.55 64.2709 363.038 66.5749 363.038 69.1989C363.038 71.8229 363.55 74.1589 364.574 76.2069C365.598 78.1909 367.038 79.7589 368.894 80.9109C370.75 82.0629 372.862 82.6389 375.23 82.6389Z" fill="#FFFFFF"/>
<path d="M329.061 67.9518C329.061 62.7678 330.053 58.4798 332.037 55.0878C334.085 51.6958 336.677 49.1678 339.813 47.5038C343.013 45.8398 346.341 45.0078 349.797 45.0078V57.2958C346.853 57.2958 344.069 57.6478 341.445 58.3518C338.885 59.0558 336.805 60.2078 335.205 61.8078C333.605 63.4078 332.805 65.4558 332.805 67.9518H329.061ZM320.133 93.1998V45.1998H332.805V93.1998H320.133Z" fill="#FFFFFF"/>
<path d="M302.74 93.1989L302.356 83.5029V68.9109C302.356 66.0309 302.036 63.5669 301.396 61.5189C300.82 59.4709 299.86 57.9029 298.516 56.8149C297.236 55.6629 295.476 55.0869 293.236 55.0869C291.188 55.0869 289.332 55.5349 287.668 56.4309C286.004 57.3269 284.596 58.7029 283.444 60.5589L272.308 56.7189C273.204 54.6709 274.516 52.6869 276.244 50.7669C277.972 48.7829 280.212 47.1829 282.964 45.9669C285.78 44.6869 289.204 44.0469 293.236 44.0469C298.1 44.0469 302.132 44.9749 305.332 46.8309C308.596 48.6869 310.996 51.3109 312.532 54.7029C314.132 58.0309 314.9 61.9989 314.836 66.6069L314.548 93.1989H302.74ZM289.3 94.3509C283.54 94.3509 279.06 93.0709 275.86 90.5109C272.724 87.9509 271.156 84.3349 271.156 79.6629C271.156 74.5429 272.852 70.7029 276.244 68.1429C279.7 65.5189 284.532 64.2069 290.74 64.2069H302.932V73.6149H295.156C290.996 73.6149 288.116 74.1269 286.516 75.1509C284.916 76.1109 284.116 77.4869 284.116 79.2789C284.116 80.6869 284.756 81.8069 286.036 82.6389C287.316 83.4069 289.108 83.7909 291.412 83.7909C293.524 83.7909 295.38 83.3109 296.98 82.3509C298.644 81.3269 299.956 80.0469 300.916 78.5109C301.876 76.9109 302.356 75.2789 302.356 73.6149H305.428C305.428 80.1429 304.18 85.2309 301.684 88.8789C299.252 92.5269 295.124 94.3509 289.3 94.3509Z" fill="#FFFFFF"/>
<path d="M193.867 93.1989V45.1989H205.771L206.347 51.4389C207.819 49.0069 209.707 47.1829 212.011 45.9669C214.315 44.6869 216.875 44.0469 219.691 44.0469C223.595 44.0469 226.859 44.8789 229.483 46.5429C232.171 48.2069 234.123 50.7669 235.339 54.2229C236.747 50.9589 238.731 48.4629 241.291 46.7349C243.851 44.9429 246.827 44.0469 250.219 44.0469C255.851 44.0469 260.139 45.8389 263.083 49.4229C266.027 52.9429 267.499 58.3829 267.499 65.7429V93.1989H254.827V68.6229C254.827 65.3589 254.475 62.8309 253.771 61.0389C253.067 59.2469 252.107 57.9669 250.891 57.1989C249.675 56.3669 248.235 55.9509 246.571 55.9509C243.499 55.8869 241.131 56.8789 239.467 58.9269C237.803 60.9749 236.971 64.0149 236.971 68.0469V93.1989H224.299V68.6229C224.299 65.3589 223.947 62.8309 223.243 61.0389C222.603 59.2469 221.643 57.9669 220.363 57.1989C219.147 56.3669 217.707 55.9509 216.043 55.9509C212.971 55.8869 210.603 56.8789 208.939 58.9269C207.339 60.9749 206.539 64.0149 206.539 68.0469V93.1989H193.867Z" fill="#FFFFFF"/>
<path d="M177.557 93.2L151.829 26H164.981L191.477 93.2H177.557ZM124.469 93.2L150.965 26H164.117L138.389 93.2H124.469ZM136.949 78.416V66.8H179.093V78.416H136.949Z" fill="#FFFFFF"/>
<path d="M47.8594 32.8027H55.457V99.8318L51.8482 102.321L47.8594 99.8318V32.8027Z" fill="#009776"/>
<path d="M55.5078 90.5918L49.3725 84.2701L83.3316 51.3123L87.5072 53.091L89.4669 57.634L55.5078 90.5918Z" fill="#009776"/>
<path d="M47.7344 90.5918L53.8697 84.2701L19.9106 51.3123L15.735 53.091L13.7753 57.634L47.7344 90.5918Z" fill="#009776"/>
<path d="M30.2148 97.1733C19.9477 98.1119 12.5695 93.3684 6.47548 85.9116C5.63847 84.8874 5.90154 84.294 6.94289 83.6824C10.5592 81.5586 14.3542 80.1467 18.6412 80.4293C19.5181 80.4871 20.4164 80.4441 21.2865 80.3196C22.1776 80.1921 22.7498 79.5757 22.9633 78.7065C23.1938 77.7677 22.6819 77.1328 21.9625 76.6327C21.1693 76.0812 20.2435 75.8515 19.3374 75.5679C7.72067 71.9311 1.61089 63.8945 0.177995 51.9335C-0.298135 47.959 0.277348 44.1215 0.775099 40.243C0.917996 39.1294 1.23326 38.2238 2.73121 38.2148C9.42641 38.1745 15.9613 39.062 22.3212 41.2098C26.1853 42.5148 28.9507 45.0276 30.8919 48.5618C31.5603 49.7786 32.2852 50.9844 33.1403 52.0727C33.9077 53.0494 34.9603 53.788 36.2604 52.9617C37.5311 52.1542 37.4574 50.861 36.8759 49.7539C36.0259 48.1356 35.015 46.5877 33.9452 45.1015C27.5806 36.2597 28.459 27.3441 33.7029 18.438C37.9486 11.2274 44.0182 5.68636 50.4734 0.519759C51.296 -0.138687 51.9566 -0.192833 52.8175 0.479786C59.7504 5.89653 66.1055 11.8638 70.3915 19.6686C74.8362 27.7623 75.297 35.8988 70.1006 43.9269C69.035 45.5732 67.9977 47.2388 66.9887 48.9204C66.6679 49.455 66.3942 50.0498 66.2532 50.6532C66.0378 51.5747 66.2384 52.4073 67.1259 52.9633C68.0825 53.5626 68.9428 53.3556 69.7355 52.6772C70.9237 51.6604 71.5619 50.2414 72.2465 48.9049C74.5756 44.3582 78.3671 41.843 83.1728 40.4977C88.8208 38.9165 94.5509 38.1449 100.409 38.2139C101.464 38.2263 102.257 38.3971 102.485 39.6201C103.906 47.2281 103.847 54.6903 100.582 61.9097C97.3136 69.1357 91.4105 73.1415 84.1749 75.5756C83.5159 75.7973 82.8413 75.9849 82.2061 76.262C81.1175 76.737 80.0827 77.3665 80.3954 78.7796C80.6956 80.1365 81.8421 80.4433 83.0484 80.4523C85.1319 80.4678 87.2117 80.271 89.2878 80.7304C91.8569 81.2988 94.2026 82.3679 96.4559 83.6726C97.2945 84.1582 97.8838 84.7418 97.0337 85.7698C91.1715 92.8595 84.2277 97.8528 74.4819 97.2636C72.3466 97.1345 70.2134 96.7552 68.1117 96.3302C63.6505 95.4281 60.1438 96.6796 57.6424 100.58C55.6127 103.745 54.1429 107.164 52.8657 110.68C52.5884 111.443 52.2763 112.194 51.9606 113C50.9121 112.718 50.9458 111.829 50.7023 111.192C49.4833 107.999 48.3424 104.772 46.5731 101.826C43.4753 96.669 40.6436 95.414 34.6977 96.4768C33.267 96.7326 31.8243 96.9213 30.2148 97.1733ZM56.0349 80.8573C55.4633 81.5485 55.2999 82.5735 54.0978 83.1999C53.356 67.0576 52.6254 51.1603 51.8949 35.263C51.7538 35.268 51.6128 35.2731 51.4717 35.2781C50.7399 51.1777 50.0082 67.0773 49.2744 83.0203C48.4809 82.8879 48.3161 82.5243 48.1359 82.2001C45.0679 76.6825 40.8715 72.1419 35.8102 68.447C31.5703 65.3517 27.1354 62.5246 22.8124 59.5416C20.1291 57.69 17.4561 55.819 15.0855 53.5498C19.2205 58.4143 24.0123 62.5361 29.0396 66.3946C37.519 72.9027 44.4734 80.6168 48.4463 90.723C49.7354 94.0023 50.5432 97.4313 51.5651 100.896C52.2314 100.331 52.1905 99.6734 52.328 99.0846C54.1523 91.2716 57.4213 84.1642 62.393 77.8188C66.8629 72.1138 72.6141 67.8625 78.1733 63.368C81.4318 60.7335 84.6936 58.0767 87.2314 54.6778C82.2771 58.6263 76.955 62.0254 71.6701 65.4828C65.5183 69.5074 60.1242 74.329 56.0349 80.8573Z" fill="#FFFFFF"/>
</svg>
