<svg width="529" height="133" viewBox="0 0 529 133" fill="none" xmlns="http://www.w3.org/2000/svg">
<path d="M504.749 101.501C500.013 101.501 495.821 100.445 492.173 98.3333C488.525 96.1573 485.645 93.1813 483.533 89.4053C481.485 85.6293 480.461 81.2773 480.461 76.3493C480.461 71.4213 481.517 67.0693 483.629 63.2933C485.805 59.5173 488.749 56.5733 492.461 54.4613C496.237 52.2853 500.557 51.1973 505.421 51.1973C509.645 51.1973 513.517 52.3173 517.037 54.5573C520.621 56.7333 523.469 59.9653 525.581 64.2533C527.757 68.4773 528.845 73.6293 528.845 79.7093H492.461L493.613 78.5573C493.613 80.9253 494.189 83.0053 495.341 84.7973C496.557 86.5253 498.093 87.8693 499.949 88.8293C501.869 89.7253 503.917 90.1733 506.093 90.1733C508.717 90.1733 510.861 89.6293 512.525 88.5413C514.189 87.3893 515.469 85.9173 516.365 84.1253L527.693 88.5413C526.349 91.2293 524.589 93.5653 522.413 95.5493C520.301 97.4693 517.773 98.9413 514.829 99.9653C511.885 100.989 508.525 101.501 504.749 101.501ZM494.285 71.4533L493.133 70.3013H516.269L515.213 71.4533C515.213 69.1493 514.669 67.3253 513.581 65.9813C512.493 64.5733 511.149 63.5493 509.549 62.9093C508.013 62.2693 506.509 61.9493 505.037 61.9493C503.565 61.9493 501.997 62.2693 500.333 62.9093C498.669 63.5493 497.229 64.5733 496.013 65.9813C494.861 67.3253 494.285 69.1493 494.285 71.4533Z" fill="#FFFFFF"/>
<path d="M463.01 100.35L462.338 91.4224V33.1504H475.01V100.35H463.01ZM447.938 101.502C443.522 101.502 439.682 100.478 436.418 98.4304C433.218 96.3824 430.722 93.4704 428.93 89.6944C427.138 85.9184 426.242 81.4704 426.242 76.3504C426.242 71.1664 427.138 66.7184 428.93 63.0064C430.722 59.2304 433.218 56.3184 436.418 54.2704C439.682 52.2224 443.522 51.1984 447.938 51.1984C451.97 51.1984 455.362 52.2224 458.114 54.2704C460.93 56.3184 463.074 59.2304 464.546 63.0064C466.018 66.7184 466.754 71.1664 466.754 76.3504C466.754 81.4704 466.018 85.9184 464.546 89.6944C463.074 93.4704 460.93 96.3824 458.114 98.4304C455.362 100.478 451.97 101.502 447.938 101.502ZM451.202 89.8864C453.378 89.8864 455.298 89.3104 456.962 88.1584C458.69 87.0064 460.034 85.4064 460.994 83.3584C461.954 81.3104 462.434 78.9744 462.434 76.3504C462.434 73.7264 461.954 71.3904 460.994 69.3424C460.034 67.2944 458.69 65.7264 456.962 64.6384C455.298 63.4864 453.346 62.9104 451.106 62.9104C448.802 62.9104 446.786 63.4864 445.058 64.6384C443.33 65.7264 441.954 67.2944 440.93 69.3424C439.906 71.3904 439.394 73.7264 439.394 76.3504C439.394 78.9744 439.906 81.3104 440.93 83.3584C441.954 85.4064 443.33 87.0064 445.058 88.1584C446.85 89.3104 448.898 89.8864 451.202 89.8864Z" fill="#FFFFFF"/>
<path d="M398.496 101.501C393.632 101.501 389.28 100.445 385.44 98.3333C381.664 96.1573 378.688 93.1813 376.512 89.4053C374.4 85.6293 373.344 81.2773 373.344 76.3493C373.344 71.4213 374.4 67.0693 376.512 63.2933C378.624 59.5173 381.568 56.5733 385.344 54.4613C389.12 52.2853 393.44 51.1973 398.304 51.1973C403.232 51.1973 407.584 52.2853 411.36 54.4613C415.136 56.5733 418.08 59.5173 420.192 63.2933C422.304 67.0693 423.36 71.4213 423.36 76.3493C423.36 81.2773 422.304 85.6293 420.192 89.4053C418.08 93.1813 415.136 96.1573 411.36 98.3333C407.648 100.445 403.36 101.501 398.496 101.501ZM398.496 89.7893C400.864 89.7893 402.944 89.2133 404.736 88.0613C406.528 86.9093 407.904 85.3413 408.864 83.3573C409.888 81.3093 410.4 78.9733 410.4 76.3493C410.4 73.7253 409.888 71.4213 408.864 69.4373C407.84 67.3893 406.4 65.7893 404.544 64.6373C402.752 63.4853 400.672 62.9093 398.304 62.9093C396 62.9093 393.92 63.4853 392.064 64.6373C390.272 65.7893 388.864 67.3893 387.84 69.4373C386.816 71.4213 386.304 73.7253 386.304 76.3493C386.304 78.9733 386.816 81.3093 387.84 83.3573C388.864 85.3413 390.304 86.9093 392.16 88.0613C394.016 89.2133 396.128 89.7893 398.496 89.7893Z" fill="#FFFFFF"/>
<path d="M340.741 101.502C334.213 101.502 328.421 100.03 323.365 97.086C318.309 94.078 314.341 89.982 311.461 84.798C308.581 79.55 307.141 73.534 307.141 66.75C307.141 59.966 308.581 53.982 311.461 48.798C314.341 43.55 318.277 39.454 323.269 36.51C328.325 33.502 334.117 31.998 340.645 31.998C345.253 31.998 349.541 32.83 353.509 34.494C357.477 36.094 360.933 38.366 363.877 41.31C366.885 44.19 369.189 47.518 370.789 51.294L358.597 55.806C357.509 53.438 356.069 51.39 354.277 49.662C352.485 47.87 350.437 46.494 348.133 45.534C345.829 44.51 343.333 43.998 340.645 43.998C336.741 43.998 333.253 44.99 330.181 46.974C327.173 48.894 324.805 51.55 323.077 54.942C321.413 58.334 320.581 62.27 320.581 66.75C320.581 71.23 321.445 75.198 323.173 78.654C324.901 82.046 327.301 84.734 330.373 86.718C333.445 88.638 336.965 89.598 340.933 89.598C343.685 89.598 346.181 89.086 348.421 88.062C350.725 86.974 352.741 85.502 354.469 83.646C356.261 81.79 357.701 79.646 358.789 77.214L370.981 81.63C369.381 85.534 367.077 88.9901 364.069 91.9981C361.125 95.0061 357.669 97.342 353.701 99.006C349.733 100.67 345.413 101.502 340.741 101.502Z" fill="#FFFFFF"/>
<path d="M256.156 100.35L275.836 72.8936L289.564 52.3496H304.54L285.436 79.1336L271.324 100.35H256.156ZM290.62 100.35L276.7 79.1336L257.404 52.3496H272.38L286.108 72.8936L305.692 100.35H290.62Z" fill="#FFFFFF"/>
<path d="M233.772 101.501C229.036 101.501 224.844 100.445 221.196 98.3333C217.548 96.1573 214.668 93.1813 212.556 89.4053C210.508 85.6293 209.484 81.2773 209.484 76.3493C209.484 71.4213 210.54 67.0693 212.652 63.2933C214.828 59.5173 217.772 56.5733 221.484 54.4613C225.26 52.2853 229.58 51.1973 234.444 51.1973C238.668 51.1973 242.54 52.3173 246.06 54.5573C249.644 56.7333 252.492 59.9653 254.604 64.2533C256.78 68.4773 257.868 73.6293 257.868 79.7093H221.484L222.636 78.5573C222.636 80.9253 223.212 83.0053 224.364 84.7973C225.58 86.5253 227.116 87.8693 228.972 88.8293C230.892 89.7253 232.94 90.1733 235.116 90.1733C237.74 90.1733 239.884 89.6293 241.548 88.5413C243.212 87.3893 244.492 85.9173 245.388 84.1253L256.716 88.5413C255.372 91.2293 253.612 93.5653 251.436 95.5493C249.324 97.4693 246.796 98.9413 243.852 99.9653C240.908 100.989 237.548 101.501 233.772 101.501ZM223.308 71.4533L222.156 70.3013H245.292L244.236 71.4533C244.236 69.1493 243.692 67.3253 242.604 65.9813C241.516 64.5733 240.172 63.5493 238.572 62.9093C237.036 62.2693 235.532 61.9493 234.06 61.9493C232.588 61.9493 231.02 62.2693 229.356 62.9093C227.692 63.5493 226.252 64.5733 225.036 65.9813C223.884 67.3253 223.308 69.1493 223.308 71.4533Z" fill="#FFFFFF"/>
<path d="M149.562 100.35V33.1504H171.067C177.915 33.1504 183.962 34.5904 189.21 37.4704C194.522 40.3504 198.651 44.3184 201.595 49.3744C204.603 54.3664 206.107 60.1584 206.107 66.7504C206.107 73.2784 204.603 79.0704 201.595 84.1264C198.651 89.1824 194.522 93.1504 189.21 96.0304C183.962 98.9104 177.915 100.35 171.067 100.35H149.562ZM162.715 88.0624H171.067C174.139 88.0624 176.986 87.5184 179.611 86.4304C182.234 85.3424 184.506 83.8384 186.426 81.9184C188.41 79.9984 189.947 77.7584 191.035 75.1984C192.123 72.5744 192.667 69.7584 192.667 66.7504C192.667 63.7424 192.123 60.9584 191.035 58.3984C189.947 55.7744 188.41 53.5024 186.426 51.5824C184.506 49.6624 182.234 48.1584 179.611 47.0704C176.986 45.9824 174.139 45.4384 171.067 45.4384H162.715V88.0624Z" fill="#FFFFFF"/>
<rect y="36.7461" width="73.4935" height="110.705" rx="10" transform="rotate(-30 0 36.7461)" fill="#E17120"/>
<rect x="9.67969" y="22.3535" width="73.4935" height="110.705" rx="10" transform="rotate(-15 9.67969 22.3535)" fill="#E17120"/>
<rect x="23" y="11" width="73" height="111" rx="10" fill="#E17120"/>
<rect x="38.3281" y="3.33398" width="73.4935" height="110.705" rx="10" transform="rotate(15 38.3281 3.33398)" fill="#E17120"/>
<rect x="55.3516" y="0.00195312" width="73.4935" height="110.705" rx="10" transform="rotate(30 55.3516 0.00195312)" fill="#E17120"/>
</svg>
