<svg width="104" height="113" viewBox="0 0 104 113" fill="none" xmlns="http://www.w3.org/2000/svg">
<path d="M47.8594 32.8027H55.457V99.8318L51.8482 102.321L47.8594 99.8318V32.8027Z" fill="#009776"/>
<path d="M55.5078 90.5918L49.3725 84.2701L83.3316 51.3123L87.5072 53.091L89.4669 57.634L55.5078 90.5918Z" fill="#009776"/>
<path d="M47.7344 90.5918L53.8697 84.2701L19.9106 51.3123L15.735 53.091L13.7753 57.634L47.7344 90.5918Z" fill="#009776"/>
<path d="M30.2148 97.1733C19.9477 98.1119 12.5695 93.3684 6.47548 85.9116C5.63847 84.8874 5.90154 84.294 6.94289 83.6824C10.5592 81.5586 14.3542 80.1467 18.6412 80.4293C19.5181 80.4871 20.4164 80.4441 21.2865 80.3196C22.1776 80.1921 22.7498 79.5757 22.9633 78.7065C23.1938 77.7677 22.6819 77.1328 21.9625 76.6327C21.1693 76.0812 20.2435 75.8515 19.3374 75.5679C7.72067 71.9311 1.61089 63.8945 0.177995 51.9335C-0.298135 47.959 0.277348 44.1215 0.775099 40.243C0.917996 39.1294 1.23326 38.2238 2.73121 38.2148C9.42641 38.1745 15.9613 39.062 22.3212 41.2098C26.1853 42.5148 28.9507 45.0276 30.8919 48.5618C31.5603 49.7786 32.2852 50.9844 33.1403 52.0727C33.9077 53.0494 34.9603 53.788 36.2604 52.9617C37.5311 52.1542 37.4574 50.861 36.8759 49.7539C36.0259 48.1356 35.015 46.5877 33.9452 45.1015C27.5806 36.2597 28.459 27.3441 33.7029 18.438C37.9486 11.2274 44.0182 5.68636 50.4734 0.519759C51.296 -0.138687 51.9566 -0.192833 52.8175 0.479786C59.7504 5.89653 66.1055 11.8638 70.3915 19.6686C74.8362 27.7623 75.297 35.8988 70.1006 43.9269C69.035 45.5732 67.9977 47.2388 66.9887 48.9204C66.6679 49.455 66.3942 50.0498 66.2532 50.6532C66.0378 51.5747 66.2384 52.4073 67.1259 52.9633C68.0825 53.5626 68.9428 53.3556 69.7355 52.6772C70.9237 51.6604 71.5619 50.2414 72.2465 48.9049C74.5756 44.3582 78.3671 41.843 83.1728 40.4977C88.8208 38.9165 94.5509 38.1449 100.409 38.2139C101.464 38.2263 102.257 38.3971 102.485 39.6201C103.906 47.2281 103.847 54.6903 100.582 61.9097C97.3136 69.1357 91.4105 73.1415 84.1749 75.5756C83.5159 75.7973 82.8413 75.9849 82.2061 76.262C81.1175 76.737 80.0827 77.3665 80.3954 78.7796C80.6956 80.1365 81.8421 80.4433 83.0484 80.4523C85.1319 80.4678 87.2117 80.271 89.2878 80.7304C91.8569 81.2988 94.2026 82.3679 96.4559 83.6726C97.2945 84.1582 97.8838 84.7418 97.0337 85.7698C91.1715 92.8595 84.2277 97.8528 74.4819 97.2636C72.3466 97.1345 70.2134 96.7552 68.1117 96.3302C63.6505 95.4281 60.1438 96.6796 57.6424 100.58C55.6127 103.745 54.1429 107.164 52.8657 110.68C52.5884 111.443 52.2763 112.194 51.9606 113C50.9121 112.718 50.9458 111.829 50.7023 111.192C49.4833 107.999 48.3424 104.772 46.5731 101.826C43.4753 96.669 40.6436 95.414 34.6977 96.4768C33.267 96.7326 31.8243 96.9213 30.2148 97.1733ZM56.0349 80.8573C55.4633 81.5485 55.2999 82.5735 54.0978 83.1999C53.356 67.0576 52.6254 51.1603 51.8949 35.263C51.7538 35.268 51.6128 35.2731 51.4717 35.2781C50.7399 51.1777 50.0082 67.0773 49.2744 83.0203C48.4809 82.8879 48.3161 82.5243 48.1359 82.2001C45.0679 76.6825 40.8715 72.1419 35.8102 68.447C31.5703 65.3517 27.1354 62.5246 22.8124 59.5416C20.1291 57.69 17.4561 55.819 15.0855 53.5498C19.2205 58.4143 24.0123 62.5361 29.0396 66.3946C37.519 72.9027 44.4734 80.6168 48.4463 90.723C49.7354 94.0023 50.5432 97.4313 51.5651 100.896C52.2314 100.331 52.1905 99.6734 52.328 99.0846C54.1523 91.2716 57.4213 84.1642 62.393 77.8188C66.8629 72.1138 72.6141 67.8625 78.1733 63.368C81.4318 60.7335 84.6936 58.0767 87.2314 54.6778C82.2771 58.6263 76.955 62.0254 71.6701 65.4828C65.5183 69.5074 60.1242 74.329 56.0349 80.8573Z" fill="#02001A"/>
</svg>
