<svg width="342" height="98" viewBox="0 0 342 98" fill="none" xmlns="http://www.w3.org/2000/svg">
<path d="M8.56743e-06 -8.56743e-06L49 -4.28372e-06L49 10L16.1807 9.99999L55.1807 88L88 88L88 10L49 10L49 -4.28372e-06L98 0L98 98L49 98L8.56743e-06 -8.56743e-06Z" fill="#02001A"/>
<path d="M59 61H96.5V71H64L59 61Z" fill="#02001A"/>
<path d="M301.969 94.7192C300.241 94.7192 298.321 94.3672 296.209 93.6632C294.161 93.0232 292.337 92.2552 290.737 91.3592L295.441 81.0872C296.529 81.6632 297.521 82.1112 298.417 82.4312C299.377 82.8152 300.209 83.0072 300.913 83.0072C302.257 83.0072 303.441 82.6232 304.465 81.8552C305.489 81.1512 306.321 80.0952 306.961 78.6872L312.625 65.3432L327.889 26.3672H341.809L320.017 78.4952C318.673 81.6952 317.265 84.5112 315.793 86.9432C314.321 89.4392 312.497 91.3592 310.321 92.7032C308.209 94.0472 305.425 94.7192 301.969 94.7192ZM309.265 74.3672L287.281 26.3672H301.201L317.233 65.3432L321.361 74.3672H309.265Z" fill="#02001A"/>
<path d="M263.803 49.1198C263.803 43.9358 264.795 39.6478 266.779 36.2558C268.827 32.8638 271.419 30.3358 274.555 28.6718C277.755 27.0078 281.083 26.1758 284.539 26.1758V38.4638C281.595 38.4638 278.811 38.8158 276.187 39.5198C273.627 40.2238 271.547 41.3758 269.947 42.9758C268.347 44.5758 267.547 46.6238 267.547 49.1198H263.803ZM254.875 74.3678V26.3678H267.547V74.3678H254.875Z" fill="#02001A"/>
<path d="M201.578 93.5668V26.3668H213.482L214.25 35.1988V93.5668H201.578ZM228.746 75.5188C224.714 75.5188 221.29 74.4948 218.474 72.4468C215.722 70.3988 213.61 67.4868 212.138 63.7108C210.666 59.9348 209.93 55.4868 209.93 50.3668C209.93 45.1828 210.666 40.7348 212.138 37.0228C213.61 33.2468 215.722 30.3348 218.474 28.2868C221.29 26.2388 224.714 25.2148 228.746 25.2148C233.162 25.2148 236.97 26.2388 240.17 28.2868C243.434 30.3348 245.962 33.2468 247.754 37.0228C249.546 40.7348 250.442 45.1828 250.442 50.3668C250.442 55.4868 249.546 59.9348 247.754 63.7108C245.962 67.4868 243.434 70.3988 240.17 72.4468C236.97 74.4948 233.162 75.5188 228.746 75.5188ZM225.482 63.9028C227.786 63.9028 229.802 63.3268 231.53 62.1748C233.322 61.0228 234.73 59.4228 235.754 57.3748C236.778 55.3268 237.29 52.9908 237.29 50.3668C237.29 47.7428 236.778 45.4068 235.754 43.3588C234.794 41.3108 233.418 39.7428 231.626 38.6548C229.898 37.5028 227.882 36.9268 225.578 36.9268C223.402 36.9268 221.45 37.5028 219.722 38.6548C217.994 39.8068 216.65 41.4068 215.69 43.4548C214.73 45.4388 214.25 47.7428 214.25 50.3668C214.25 52.9908 214.73 55.3268 215.69 57.3748C216.65 59.4228 217.962 61.0228 219.626 62.1748C221.354 63.3268 223.306 63.9028 225.482 63.9028Z" fill="#02001A"/>
<path d="M180.616 74.368V26.368H193.288V74.368H180.616ZM186.952 18.592C185.032 18.592 183.336 17.888 181.864 16.48C180.392 15.008 179.656 13.28 179.656 11.296C179.656 9.312 180.392 7.616 181.864 6.208C183.336 4.736 185.032 4 186.952 4C188.936 4 190.632 4.736 192.04 6.208C193.512 7.616 194.248 9.312 194.248 11.296C194.248 13.28 193.512 15.008 192.04 16.48C190.632 17.888 188.936 18.592 186.952 18.592Z" fill="#02001A"/>
<path d="M128.172 74.3668V26.3668H140.076L140.844 35.1988V74.3668H128.172ZM159.948 74.3668V49.7908H172.62V74.3668H159.948ZM159.948 49.7908C159.948 46.5268 159.564 43.9988 158.796 42.2068C158.092 40.4148 157.068 39.1348 155.724 38.3668C154.38 37.5348 152.812 37.1188 151.02 37.1188C147.756 37.0548 145.228 38.0468 143.436 40.0948C141.708 42.1428 140.844 45.1828 140.844 49.2148H136.62C136.62 44.0948 137.356 39.7748 138.828 36.2548C140.364 32.6708 142.476 29.9508 145.164 28.0948C147.916 26.1748 151.116 25.2148 154.764 25.2148C158.54 25.2148 161.772 25.9828 164.46 27.5188C167.148 29.0548 169.196 31.4548 170.604 34.7188C172.012 37.9188 172.684 42.0788 172.62 47.1988V49.7908H159.948Z" fill="#02001A"/>
</svg>
